<?xml version="1.0" standalone="no"?>
<!DOCTYPE svg PUBLIC "-//W3C//DTD SVG 20010904//EN"
 "http://www.w3.org/TR/2001/REC-SVG-20010904/DTD/svg10.dtd">
<svg version="1.0" xmlns="http://www.w3.org/2000/svg"
 width="493.000000pt" height="647.000000pt" viewBox="0 0 493.000000 647.000000"
 preserveAspectRatio="xMidYMid meet">

<g transform="translate(0.000000,647.000000) scale(0.100000,-0.100000)"
fill="#000000" stroke="none">
<path d="M2035 6043 c-153 -192 -285 -356 -292 -365 -19 -22 -8 -56 20 -63 12
-3 66 8 120 24 177 55 248 66 417 66 179 -1 258 -13 424 -62 109 -33 122 -35
145 -22 14 8 27 24 29 34 2 13 -93 139 -284 378 -157 196 -290 357 -294 357
-4 0 -133 -156 -285 -347z"/>
<path d="M3305 5710 c-99 -38 -184 -70 -188 -72 -8 -4 11 -68 21 -68 7 0 326
176 357 197 38 25 -9 11 -190 -57z"/>
<path d="M2202 5613 l-22 -4 2 -257 3 -257 165 -6 c91 -3 192 -11 225 -17 33
-6 80 -12 105 -14 l45 -3 0 238 0 239 -59 24 c-32 13 -91 30 -130 38 -74 15
-295 28 -334 19z"/>
<path d="M1995 5576 c-38 -13 -82 -29 -98 -36 l-27 -13 2 -231 3 -231 35 3
c19 1 65 7 103 13 l67 11 0 254 c0 140 -3 254 -7 254 -5 -1 -39 -11 -78 -24z"/>
<path d="M3137 5438 c-2 -18 -3 -35 -1 -37 6 -6 325 20 366 29 19 5 25 8 13 9
-11 1 -94 8 -185 16 -91 8 -170 15 -176 15 -7 0 -14 -15 -17 -32z"/>
<path d="M3117 5258 c-10 -23 -11 -35 -3 -41 16 -11 327 -109 332 -105 2 2
-58 37 -134 78 -75 41 -147 80 -159 88 -21 13 -23 12 -36 -20z"/>
<path d="M2130 5000 c-52 -6 -163 -26 -247 -45 l-151 -36 -4 -77 c-2 -42 -1
-80 2 -83 3 -4 43 2 90 12 159 34 307 49 493 49 204 0 303 -10 459 -46 59 -13
118 -24 133 -24 26 0 26 0 20 58 -12 115 -14 122 -38 122 -12 0 -92 16 -177
35 -135 31 -176 36 -320 40 -91 2 -208 0 -260 -5z"/>
<path d="M2140 4770 c-91 -8 -358 -56 -369 -66 -2 -2 16 -26 40 -55 48 -58 18
-54 239 -29 136 16 545 7 650 -14 41 -8 82 -15 90 -15 19 -1 103 105 95 119
-3 6 -19 10 -34 10 -15 0 -88 11 -162 25 -155 29 -383 39 -549 25z"/>
<path d="M2140 4581 l-45 -6 -27 -190 c-36 -254 -36 -256 15 -160 69 132 135
210 261 311 l49 39 -54 7 c-65 7 -138 7 -199 -1z"/>
<path d="M1923 4560 c-13 -5 -23 -15 -23 -22 0 -6 -76 -596 -170 -1309 -93
-714 -170 -1304 -170 -1312 0 -12 8 -12 45 -4 39 9 45 14 50 41 13 77 335
2566 335 2589 0 22 -5 27 -22 26 -13 0 -33 -4 -45 -9z"/>
<path d="M2647 4543 c54 -444 346 -2650 351 -2654 11 -10 75 -30 80 -25 4 4
-313 2446 -339 2616 -6 36 -13 68 -17 72 -4 3 -23 9 -43 13 -35 6 -36 6 -32
-22z"/>
<path d="M2479 4531 c-65 -41 -197 -177 -250 -257 -26 -38 -90 -154 -143 -259
l-96 -190 -45 -364 c-25 -200 -45 -371 -43 -380 2 -10 16 6 35 41 45 78 229
321 296 390 59 60 181 155 233 181 16 8 68 23 114 31 46 9 84 17 85 19 1 1
-22 180 -51 397 -29 217 -53 401 -54 408 0 20 -34 14 -81 -17z"/>
<path d="M4336 3650 c-33 -10 -76 -48 -76 -67 0 -24 -39 -53 -73 -53 -31 0
-87 -30 -147 -79 -34 -28 -22 -26 52 9 51 25 71 30 108 25 55 -7 62 -2 87 56
12 28 36 58 59 75 22 15 43 32 49 36 12 10 -21 9 -59 -2z"/>
<path d="M2555 3632 c-27 -10 -71 -32 -98 -50 -64 -44 -201 -184 -302 -307
-82 -100 -274 -360 -281 -380 -2 -5 -28 -208 -59 -450 -31 -242 -58 -452 -61
-467 -7 -37 14 -37 47 0 14 15 86 117 159 227 158 238 178 263 328 425 176
189 247 245 395 309 43 19 77 38 77 43 0 17 -70 602 -76 636 -6 29 -9 32 -43
31 -20 0 -58 -8 -86 -17z"/>
<path d="M3460 3589 c-14 -5 -35 -25 -48 -45 l-23 -35 -73 7 c-66 6 -79 4
-135 -21 -34 -15 -60 -30 -58 -32 3 -2 36 2 76 8 65 11 76 10 126 -9 30 -12
61 -19 68 -16 6 3 26 24 42 47 23 32 45 48 92 66 34 13 60 28 57 33 -7 11 -92
9 -124 -3z"/>
<path d="M1225 3401 c-56 -26 -71 -39 -124 -110 -16 -22 -25 -24 -74 -22 -55
2 -58 1 -102 -45 -25 -26 -43 -49 -40 -52 3 -3 30 7 60 23 49 24 63 27 114 22
67 -7 79 1 102 67 13 36 27 51 119 125 34 28 16 25 -55 -8z"/>
<path d="M3650 3126 c0 -2 37 -16 81 -32 74 -26 87 -34 137 -91 31 -35 61 -63
68 -63 7 0 36 11 66 25 57 27 116 32 166 14 17 -6 41 -9 54 -7 21 3 18 6 -22
34 -25 18 -64 37 -87 44 -37 11 -46 11 -83 -9 -57 -29 -71 -27 -130 23 -38 33
-64 46 -107 55 -54 11 -143 15 -143 7z"/>
<path d="M2700 2841 c-78 -32 -176 -97 -244 -160 -65 -61 -217 -243 -305 -364
-86 -119 -226 -346 -218 -353 3 -3 153 -7 334 -9 262 -2 358 -7 478 -24 82
-11 151 -18 153 -16 6 6 -119 939 -127 947 -3 4 -35 -6 -71 -21z"/>
<path d="M873 2816 c-43 -9 -72 -21 -97 -44 -42 -37 -41 -37 -93 -18 -36 13
-44 12 -79 -4 -21 -10 -48 -25 -59 -35 -20 -16 -20 -16 5 -11 75 18 101 18
150 0 l50 -18 48 46 c27 27 68 53 97 63 94 34 85 42 -22 21z"/>
<path d="M3365 2154 c-24 -26 -45 -80 -45 -117 0 -17 1 -17 25 1 14 11 40 23
59 26 20 4 44 18 55 32 50 63 -39 117 -94 58z"/>
<path d="M3205 2020 c-4 -7 -3 -16 3 -22 14 -14 57 -6 57 12 0 18 -50 26 -60
10z"/>
<path d="M3386 1981 c-21 -24 -13 -41 18 -41 26 0 61 34 51 49 -10 18 -50 13
-69 -8z"/>
<path d="M3524 1975 c-7 -18 3 -35 21 -35 18 0 26 25 12 39 -15 15 -27 14 -33
-4z"/>
<path d="M3452 1874 c-43 -30 -4 -93 46 -73 29 11 31 63 3 79 -25 13 -22 13
-49 -6z"/>
<path d="M1962 1850 c-216 -18 -554 -68 -582 -85 -17 -10 -32 -77 -25 -111 5
-28 22 -47 100 -110 52 -41 95 -81 95 -89 0 -8 -12 -40 -27 -70 -21 -42 -25
-60 -17 -72 16 -26 72 -41 149 -42 99 -1 153 30 216 124 57 84 95 118 152 135
23 7 61 26 84 42 28 21 49 29 63 25 16 -4 36 7 80 48 77 71 94 79 170 78 75 0
112 -14 217 -80 74 -46 76 -46 117 -34 138 41 176 39 235 -14 30 -28 54 -38
126 -53 49 -11 95 -17 102 -15 32 13 22 82 -29 189 -18 40 -21 42 -96 57 -313
65 -842 101 -1130 77z"/>
<path d="M3340 1811 c-23 -16 2 -33 41 -29 22 2 34 8 34 18 0 18 -52 25 -75
11z"/>
<path d="M2330 1653 c-14 -9 -57 -47 -96 -85 -58 -54 -78 -68 -103 -68 -56 0
-98 -25 -145 -89 -24 -34 -52 -81 -62 -107 -15 -39 -15 -47 -3 -59 36 -36 235
-43 324 -12 46 16 112 80 120 117 15 69 65 99 187 115 86 11 124 67 75 113
-12 12 -57 37 -99 57 -87 40 -157 46 -198 18z"/>
<path d="M3959 1582 c-37 -33 -48 -92 -30 -160 14 -51 27 -53 46 -9 8 18 32
52 54 74 47 47 53 83 19 107 -32 23 -53 20 -89 -12z"/>
<path d="M2793 1546 c-51 -44 -57 -63 -43 -117 16 -59 86 -130 163 -165 72
-32 127 -34 252 -9 82 17 91 20 185 74 64 36 96 38 197 14 57 -13 78 -14 98
-5 36 17 31 40 -20 88 -59 57 -103 68 -230 58 -55 -4 -144 -7 -197 -7 l-97 0
-83 48 c-61 36 -96 50 -133 53 -46 3 -54 1 -92 -32z"/>
<path d="M1272 1538 c-97 -26 -217 -125 -294 -243 -33 -49 -86 -115 -119 -145
-52 -49 -59 -60 -59 -94 0 -87 57 -127 191 -134 71 -4 94 -1 132 16 61 27 193
128 246 188 61 69 68 103 47 222 -30 167 -63 211 -144 190z"/>
<path d="M4115 1421 c-7 -12 33 -41 56 -41 9 0 22 6 28 14 10 12 8 17 -8 25
-24 13 -68 14 -76 2z"/>
<path d="M2565 1403 c-62 -8 -80 -22 -112 -86 -17 -34 -47 -82 -67 -106 -21
-25 -46 -61 -56 -81 -18 -36 -18 -37 2 -68 41 -66 127 -84 393 -85 205 0 278
14 314 59 54 68 7 122 -119 139 -72 10 -150 71 -205 160 -45 75 -58 80 -150
68z"/>
<path d="M3796 1395 c-3 -9 1 -18 10 -22 19 -7 39 11 30 26 -10 16 -33 13 -40
-4z"/>
<path d="M4030 1333 c-27 -10 -50 -36 -50 -55 0 -26 59 -25 89 3 38 35 11 71
-39 52z"/>
<path d="M3372 1234 c-115 -34 -161 -59 -174 -95 -5 -16 -27 -65 -49 -109
l-38 -80 46 -35 c66 -50 109 -60 184 -40 87 22 126 19 194 -15 33 -16 76 -30
95 -30 20 0 46 -7 58 -16 38 -27 233 -1 246 32 12 31 5 66 -23 122 -37 73 -60
97 -151 159 -93 62 -159 96 -229 117 -67 20 -58 20 -159 -10z"/>
<path d="M1700 1223 c-108 -18 -241 -97 -276 -164 -9 -17 -36 -56 -60 -86 -35
-42 -44 -62 -44 -92 0 -46 20 -66 107 -110 66 -33 101 -37 203 -26 44 4 87 2
133 -8 64 -14 69 -14 92 5 70 55 122 183 111 271 -7 46 -47 139 -80 180 -24
31 -103 44 -186 30z"/>
<path d="M2080 1135 c-11 -13 -16 -55 -20 -159 -5 -137 -6 -143 -40 -208 -26
-50 -32 -70 -23 -79 16 -16 62 -3 124 36 63 41 83 43 167 13 56 -20 67 -21
105 -9 23 7 67 15 97 17 86 7 100 12 100 35 0 12 -7 33 -16 49 -14 23 -25 28
-75 34 -102 10 -212 81 -339 218 -61 66 -66 69 -80 53z"/>
<path d="M4118 1079 c-40 -39 -31 -48 69 -65 91 -16 133 -31 133 -49 0 -25
-69 -73 -127 -89 -32 -9 -74 -21 -94 -26 -44 -12 -58 -38 -32 -58 36 -27 302
0 452 46 32 10 60 26 69 39 13 20 12 24 -13 47 -14 13 -45 33 -68 44 -23 11
-63 42 -88 70 -53 56 -98 72 -204 72 -61 0 -69 -3 -97 -31z"/>
<path d="M4630 1028 c0 -7 16 -24 36 -38 83 -59 84 -60 84 -97 0 -36 -30 -73
-93 -116 -59 -39 -11 -64 59 -31 41 20 101 85 110 119 15 60 -16 101 -111 146
-66 32 -85 35 -85 17z"/>
<path d="M2825 902 c-60 -21 -115 -58 -115 -77 0 -8 10 -21 23 -30 20 -13 31
-13 91 -1 39 9 78 24 90 35 26 25 70 27 119 6 70 -29 55 29 -16 64 -53 26
-123 27 -192 3z"/>
<path d="M880 837 c-73 -28 -215 -89 -253 -108 -53 -28 -37 -41 56 -47 71 -4
75 -3 109 27 35 31 71 40 83 21 9 -15 41 -12 55 5 17 21 81 19 165 -5 74 -21
131 -25 153 -11 38 23 -20 78 -112 107 -70 22 -211 28 -256 11z"/>
<path d="M3205 732 c-38 -16 -92 -39 -120 -52 -37 -16 -81 -24 -170 -31 -66
-5 -132 -11 -148 -15 -74 -16 29 -58 170 -69 80 -6 105 -4 208 21 112 26 121
27 204 15 145 -22 196 -24 252 -11 32 7 153 14 299 15 291 4 464 19 500 43
l25 16 -40 8 c-22 4 -177 14 -345 22 -183 8 -318 18 -337 26 -30 11 -37 9 -79
-15 -54 -32 -71 -30 -176 16 -101 44 -156 47 -243 11z"/>
<path d="M212 739 c-71 -9 -115 -32 -110 -57 4 -21 44 -40 132 -63 39 -10 76
-26 83 -36 7 -9 13 -38 13 -65 0 -36 5 -53 21 -69 19 -19 28 -21 91 -15 66 7
72 6 138 -28 99 -51 130 -49 268 18 139 69 150 72 357 91 215 19 290 35 385
82 l75 38 -46 3 c-26 2 -111 -8 -190 -22 -184 -33 -322 -35 -380 -5 -53 27
-102 19 -170 -27 -67 -45 -89 -44 -114 4 -23 42 -18 41 -225 31 -78 -4 -89 -2
-130 22 -25 15 -54 36 -64 48 -17 19 -18 21 -2 21 10 0 27 5 38 11 49 27 -36
36 -170 18z"/>
<path d="M2485 640 c-62 -24 -82 -24 -195 -4 -113 19 -162 11 -296 -49 -188
-84 -283 -106 -499 -117 -177 -9 -260 -25 -260 -50 0 -26 69 -39 237 -46 141
-5 179 -3 287 16 69 11 172 36 230 55 166 53 225 66 346 74 92 6 122 12 167
34 72 36 140 85 133 97 -10 16 -96 10 -150 -10z"/>
<path d="M3335 478 c-33 -4 -96 -19 -140 -34 -74 -24 -99 -27 -325 -34 -177
-6 -275 -14 -354 -29 -61 -12 -135 -21 -166 -21 -97 0 -103 -38 -12 -66 130
-39 487 -14 802 58 106 24 167 31 286 35 141 5 153 4 194 -17 35 -18 56 -21
107 -18 40 2 69 10 79 20 19 19 20 19 -106 43 -47 9 -113 25 -146 36 -86 28
-150 36 -219 27z"/>
<path d="M1880 323 c-8 -3 -34 -19 -59 -35 -36 -22 -56 -28 -103 -28 -39 0
-72 -7 -98 -20 -48 -25 -81 -25 -238 -3 -92 12 -125 14 -134 5 -9 -9 5 -19 53
-42 100 -46 218 -73 308 -69 69 4 87 9 168 52 105 54 156 61 203 27 36 -26 60
-20 125 28 l50 37 -29 3 c-16 2 -49 -1 -73 -7 -41 -11 -45 -10 -94 24 -53 36
-55 37 -79 28z"/>
</g>
</svg>
